<svg width="30" height="30" viewBox="0 0 30 30" fill="none" xmlns="http://www.w3.org/2000/svg">
<rect width="30" height="30" rx="4" fill="#FF0000"/>
<path d="M11.6402 10.27L15.5002 14.13L19.3402 10.29C19.425 10.1997 19.5272 10.1275 19.6406 10.0777C19.754 10.0278 19.8763 10.0014 20.0002 10C20.2654 10 20.5197 10.1054 20.7073 10.2929C20.8948 10.4804 21.0002 10.7348 21.0002 11C21.0025 11.1226 20.9797 11.2444 20.9333 11.3579C20.8869 11.4714 20.8178 11.5742 20.7302 11.66L16.8402 15.5L20.7302 19.39C20.895 19.5512 20.9916 19.7696 21.0002 20C21.0002 20.2652 20.8948 20.5196 20.7073 20.7071C20.5197 20.8946 20.2654 21 20.0002 21C19.8727 21.0053 19.7456 20.984 19.6268 20.9375C19.508 20.8911 19.4002 20.8204 19.3102 20.73L15.5002 16.87L11.6502 20.72C11.5657 20.8073 11.4647 20.8769 11.3532 20.925C11.2416 20.9731 11.1216 20.9986 11.0002 21C10.7349 21 10.4806 20.8946 10.2931 20.7071C10.1055 20.5196 10.0002 20.2652 10.0002 20C9.99783 19.8774 10.0206 19.7556 10.067 19.6421C10.1134 19.5286 10.1826 19.4258 10.2702 19.34L14.1602 15.5L10.2702 11.61C10.1053 11.4488 10.0087 11.2304 10.0002 11C10.0002 10.7348 10.1055 10.4804 10.2931 10.2929C10.4806 10.1054 10.7349 10 11.0002 10C11.2402 10.003 11.4702 10.1 11.6402 10.27Z" fill="black"/>
</svg>
